<svg width="37" height="34" viewBox="0 0 37 34" fill="none" xmlns="http://www.w3.org/2000/svg">
<path d="M7.89066 17C7.89066 16.1716 8.60421 15.5 9.48441 15.5H16.9062V8.51471C16.9062 7.68628 17.6198 7.01471 18.5 7.01471C19.3802 7.01471 20.0937 7.68628 20.0937 8.51471V15.5H27.5156C28.3958 15.5 29.1094 16.1716 29.1094 17C29.1094 17.8284 28.3958 18.5 27.5156 18.5H20.0937V25.4853C20.0937 26.3137 19.3802 26.9853 18.5 26.9853C17.6198 26.9853 16.9062 26.3137 16.9062 25.4853V18.5H9.48441C8.60421 18.5 7.89066 17.8284 7.89066 17Z" fill="#00B0D7"/>
<path fill-rule="evenodd" clip-rule="evenodd" d="M8.54803 0.537517C15.1091 -0.152642 21.8908 -0.152642 28.4518 0.537517C32.3329 0.945767 35.4671 3.82305 35.9236 7.49697C36.7082 13.8108 36.7082 20.1892 35.9236 26.503C35.4671 30.177 32.3329 33.0543 28.4518 33.4625C21.8908 34.1527 15.1091 34.1527 8.54803 33.4625C4.66697 33.0543 1.53281 30.177 1.07625 26.503C0.291639 20.1892 0.291639 13.8108 1.07625 7.49697C1.53281 3.82305 4.66697 0.945767 8.54803 0.537517ZM28.0978 3.51895C21.772 2.85355 15.2278 2.85355 8.90207 3.51895C6.47016 3.77477 4.52355 5.58126 4.24217 7.84548C3.48633 13.9278 3.48633 20.0722 4.24217 26.1545C4.52355 28.4188 6.47015 30.2253 8.90207 30.4811C15.2278 31.1465 21.772 31.1465 28.0978 30.4811C30.5297 30.2253 32.4763 28.4188 32.7577 26.1545C33.5135 20.0723 33.5135 13.9278 32.7577 7.84548C32.4763 5.58126 30.5297 3.77477 28.0978 3.51895Z" fill="#00B0D7"/>
</svg>
